<mxfile host="app.diagrams.net" modified="2021-02-18T08:25:23.936Z" agent="5.0 (X11; Linux x86_64) AppleWebKit/537.36 (KHTML, like Gecko) Chrome/87.0.4280.66 Safari/537.36" etag="ykLCKY8jhbhUVEqjNdZ6" version="14.3.0" type="github">
  <diagram id="K7R8wdTMONt-MAGOoHsI" name="Page-1">
    <mxGraphModel dx="1401" dy="670" grid="1" gridSize="10" guides="1" tooltips="1" connect="1" arrows="1" fold="1" page="1" pageScale="1" pageWidth="250" pageHeight="500" math="0" shadow="0">
      <root>
        <mxCell id="0" />
        <mxCell id="1" parent="0" />
        <mxCell id="PQyPgwxxldh1PPMNtEed-1" value="&lt;font style=&quot;font-size: 18px&quot;&gt;Datasource&lt;/font&gt;" style="ellipse;whiteSpace=wrap;html=1;" vertex="1" parent="1">
          <mxGeometry x="110" y="20" width="120" height="80" as="geometry" />
        </mxCell>
        <mxCell id="PQyPgwxxldh1PPMNtEed-2" value="&lt;font style=&quot;font-size: 18px&quot;&gt;Datacube&lt;/font&gt;" style="ellipse;whiteSpace=wrap;html=1;" vertex="1" parent="1">
          <mxGeometry x="-50" y="210" width="120" height="80" as="geometry" />
        </mxCell>
        <mxCell id="PQyPgwxxldh1PPMNtEed-3" value="&lt;font style=&quot;font-size: 18px&quot;&gt;Attribute&lt;/font&gt;" style="ellipse;whiteSpace=wrap;html=1;" vertex="1" parent="1">
          <mxGeometry x="265" y="200" width="120" height="80" as="geometry" />
        </mxCell>
        <mxCell id="PQyPgwxxldh1PPMNtEed-4" value="&lt;font style=&quot;font-size: 18px&quot;&gt;Dimension&lt;/font&gt;" style="ellipse;whiteSpace=wrap;html=1;" vertex="1" parent="1">
          <mxGeometry x="-210" y="430" width="120" height="80" as="geometry" />
        </mxCell>
        <mxCell id="PQyPgwxxldh1PPMNtEed-5" value="&lt;font style=&quot;font-size: 18px&quot;&gt;Measure&lt;/font&gt;" style="ellipse;whiteSpace=wrap;html=1;" vertex="1" parent="1">
          <mxGeometry x="50" y="430" width="120" height="80" as="geometry" />
        </mxCell>
        <mxCell id="PQyPgwxxldh1PPMNtEed-8" value="" style="endArrow=none;html=1;" edge="1" parent="1" source="PQyPgwxxldh1PPMNtEed-2">
          <mxGeometry width="50" height="50" relative="1" as="geometry">
            <mxPoint x="80" y="140" as="sourcePoint" />
            <mxPoint x="130" y="90" as="targetPoint" />
          </mxGeometry>
        </mxCell>
        <mxCell id="PQyPgwxxldh1PPMNtEed-9" value="" style="endArrow=none;html=1;" edge="1" parent="1" source="PQyPgwxxldh1PPMNtEed-4" target="PQyPgwxxldh1PPMNtEed-2">
          <mxGeometry width="50" height="50" relative="1" as="geometry">
            <mxPoint x="-109.99718427000252" y="414.2229123600032" as="sourcePoint" />
            <mxPoint x="-16.830000000000013" y="290" as="targetPoint" />
          </mxGeometry>
        </mxCell>
        <mxCell id="PQyPgwxxldh1PPMNtEed-10" value="" style="endArrow=none;html=1;entryX=0.767;entryY=0.938;entryDx=0;entryDy=0;entryPerimeter=0;exitX=0.417;exitY=0;exitDx=0;exitDy=0;exitPerimeter=0;" edge="1" parent="1" source="PQyPgwxxldh1PPMNtEed-5" target="PQyPgwxxldh1PPMNtEed-2">
          <mxGeometry width="50" height="50" relative="1" as="geometry">
            <mxPoint x="-50.00339948902983" y="457.9756053081312" as="sourcePoint" />
            <mxPoint x="57.773589608837895" y="310.0025642878479" as="targetPoint" />
          </mxGeometry>
        </mxCell>
        <mxCell id="PQyPgwxxldh1PPMNtEed-11" value="" style="endArrow=none;html=1;entryX=0.775;entryY=0.95;entryDx=0;entryDy=0;entryPerimeter=0;" edge="1" parent="1" source="PQyPgwxxldh1PPMNtEed-3" target="PQyPgwxxldh1PPMNtEed-1">
          <mxGeometry width="50" height="50" relative="1" as="geometry">
            <mxPoint x="136.8328157299975" y="274.2229123600032" as="sourcePoint" />
            <mxPoint x="230" y="150" as="targetPoint" />
          </mxGeometry>
        </mxCell>
      </root>
    </mxGraphModel>
  </diagram>
</mxfile>
